<?xml version="1.0" standalone="no"?>
<!DOCTYPE svg PUBLIC "-//W3C//DTD SVG 20010904//EN"
 "http://www.w3.org/TR/2001/REC-SVG-20010904/DTD/svg10.dtd">
<svg version="1.0" xmlns="http://www.w3.org/2000/svg"
 width="512.000000pt" height="512.000000pt" viewBox="0 0 512.000000 512.000000"
 preserveAspectRatio="xMidYMid meet">
<metadata>
Created by potrace 1.11, written by Peter Selinger 2001-2013
</metadata>
<g transform="translate(0.000000,512.000000) scale(0.100000,-0.100000)"
fill="#000000" stroke="none">
<path d="M1882 4718 c-192 -17 -353 -177 -364 -360 -1 -26 -7 -38 -17 -39 -9
-1 -59 -1 -111 -1 -52 0 -104 -5 -115 -11 -55 -27 -80 -82 -79 -170 0 -34 -4
-57 -10 -58 -6 0 -179 -1 -385 -1 -205 -1 -394 -5 -420 -11 -168 -34 -320
-180 -365 -348 -12 -44 -15 -162 -15 -615 l-1 -561 102 -51 c305 -151 613
-266 973 -362 99 -27 80 -23 260 -60 186 -40 171 -37 228 -44 26 -4 70 -11 97
-16 27 -5 75 -12 107 -15 32 -4 87 -10 123 -15 36 -5 71 -10 78 -10 9 0 12 28
12 108 0 200 58 319 194 401 89 54 137 60 415 57 l246 -2 70 -34 c87 -42 159
-113 199 -200 27 -60 30 -76 34 -198 l4 -133 52 6 c28 3 60 7 71 9 11 2 47 7
80 10 144 16 374 59 646 121 67 15 363 104 462 139 215 76 358 137 575 244
l92 46 0 557 c-1 606 -2 618 -58 723 -37 70 -135 166 -202 198 -109 52 -102
52 -520 54 -217 2 -400 3 -406 3 -6 1 -10 27 -9 67 2 138 -39 173 -198 171
-94 -2 -121 3 -122 20 -12 179 -140 334 -312 374 -53 12 -1282 19 -1411 7z
m1376 -341 c25 -26 26 -30 27 -157 0 -73 -4 -134 -9 -137 -11 -7 -1421 -7
-1432 0 -7 4 -10 157 -5 255 1 25 31 54 62 62 11 3 315 5 675 4 l656 -1 26
-26z"/>
<path d="M2312 2280 c-21 -10 -50 -33 -63 -51 -24 -34 -24 -36 -27 -324 -2
-159 0 -304 3 -322 7 -39 46 -88 88 -110 26 -13 68 -16 248 -15 232 0 252 4
294 54 45 52 45 53 42 375 -2 308 -2 308 -26 342 -44 61 -79 69 -313 68 -175
0 -213 -3 -246 -17z"/>
<path d="M162 1487 c3 -671 4 -715 22 -762 21 -54 70 -135 108 -175 67 -73
180 -133 274 -146 27 -4 934 -7 2015 -7 l1966 0 68 22 c169 55 300 195 334
359 7 36 11 274 11 737 l0 684 -92 -41 c-204 -88 -441 -171 -683 -238 -78 -21
-152 -41 -165 -44 -14 -2 -65 -14 -115 -25 -49 -11 -110 -25 -135 -31 -55 -12
-328 -57 -390 -64 -25 -3 -70 -9 -100 -12 -30 -4 -64 -8 -75 -9 -11 -1 -30 -3
-42 -4 -22 -1 -23 -5 -23 -79 0 -134 -34 -228 -113 -310 -101 -105 -173 -125
-457 -125 -119 0 -236 4 -260 8 -69 12 -140 47 -197 99 -92 83 -133 182 -133
323 0 72 -2 83 -17 84 -52 2 -270 31 -413 55 -173 29 -171 28 -290 54 -52 11
-106 23 -120 26 -173 36 -623 179 -785 249 -16 8 -67 29 -113 49 l-83 35 3
-712z"/>
</g>
</svg>
